# Wavefront OBJ file
# Exported by Misfit Model 3D 1.3.7a
# Sat Dec 27 11:32:56 2008

mtllib hek.mtl

# 218 Vertices
v -16.639982 22.133268 -0.145424
v -22.851876 17.21324 -0.145424
v -16.45728 21.356421 0.947916
v 21.910301 2.884738 -0.145425
v -22.121065 3.230002 0.401246
v -21.938362 2.884737 -0.145424
v 21.910301 2.884738 -0.145425
v -21.938362 2.884737 -0.145424
v 21.910301 3.230003 -0.692094
v 21.910301 3.230003 -0.692094
v -21.938362 2.884737 -0.145424
v -22.121065 3.230002 -0.692093
v 21.910301 3.230003 -0.692094
v -22.121065 3.230002 -0.692093
v 21.910301 3.575269 -0.145425
v 21.910301 3.575269 -0.145425
v -22.121065 3.230002 -0.692093
v -22.121065 3.575267 -0.145424
v 21.910301 3.575269 -0.145425
v -22.121065 3.575267 -0.145424
v 21.910302 3.230003 0.401245
v 21.910302 3.230003 0.401245
v -22.121065 3.575267 -0.145424
v -22.121065 3.230002 0.401246
v 16.246515 21.356422 0.947915
v -16.45728 21.356421 0.947916
v 16.063813 20.665892 -0.145425
v 16.063813 20.665892 -0.145425
v -16.45728 21.356421 0.947916
v -16.274577 20.665891 -0.145424
v 16.063813 20.665892 -0.145425
v -16.274577 20.665891 -0.145424
v 16.246515 21.356422 -1.061096
v 16.246515 21.356422 -1.061096
v -16.274577 20.665891 -0.145424
v -16.45728 21.356421 -1.061096
v 16.246515 21.356422 -1.061096
v -16.45728 21.356421 -1.061096
v 16.611921 21.960636 -0.145425
v 16.611921 21.960636 -0.145425
v -16.45728 21.356421 -1.061096
v -16.639982 22.133268 -0.145424
v 16.611921 21.960636 -0.145425
v -16.639982 22.133268 -0.145424
v 16.246515 21.356422 0.947915
v 16.246515 21.356422 0.947915
v -16.639982 22.133268 -0.145424
v -16.45728 21.356421 0.947916
v -22.303767 0.122616 1.508252
v -22.303768 0.122616 -0.145424
v -21.207551 0.122616 -0.145424
v -22.303768 0.122616 -1.799099
v -23.217281 0.122616 -0.145424
v -22.303768 1.41736 0.947916
v -22.303767 0.122616 1.508252
v -21.572956 1.41736 -0.145424
v -21.207551 0.122616 -0.145424
v -21.572956 1.41736 -0.145424
v -21.207551 0.122616 -0.145424
v -22.303768 1.41736 -1.061095
v -22.303768 0.122616 -1.799099
v -22.303768 1.41736 -1.061095
v -22.303768 0.122616 -1.799099
v -22.851876 1.41736 -0.145424
v -23.217281 0.122616 -0.145424
v -22.851876 1.41736 -0.145424
v -23.217281 0.122616 -0.145424
v -22.303768 1.41736 0.947916
v -22.303767 0.122616 1.508252
v -22.303768 16.781658 0.947916
v -22.303768 1.41736 0.947916
v -21.75566 16.609026 -0.145424
v -21.75566 16.609026 -0.145424
v -22.303768 1.41736 0.947916
v -21.572956 1.41736 -0.145424
v -21.75566 16.609026 -0.145424
v -21.572956 1.41736 -0.145424
v -22.303768 16.781658 -1.061095
v -22.303768 16.781658 -1.061095
v -21.572956 1.41736 -0.145424
v -22.303768 1.41736 -1.061095
v -22.303768 16.781658 -1.061095
v -22.303768 1.41736 -1.061095
v -22.851876 17.21324 -0.145424
v -22.851876 17.21324 -0.145424
v -22.303768 1.41736 -1.061095
v -22.851876 1.41736 -0.145424
v -22.851876 17.21324 -0.145424
v -22.851876 1.41736 -0.145424
v -22.303768 16.781658 0.947916
v -22.303768 16.781658 0.947916
v -22.851876 1.41736 -0.145424
v -22.303768 1.41736 0.947916
v -16.45728 21.356421 0.947916
v -22.303768 16.781658 0.947916
v -16.274577 20.665891 -0.145424
v -16.274577 20.665891 -0.145424
v -22.303768 16.781658 0.947916
v -21.75566 16.609026 -0.145424
v -16.274577 20.665891 -0.145424
v -21.75566 16.609026 -0.145424
v -16.45728 21.356421 -1.061096
v -16.45728 21.356421 -1.061096
v -21.75566 16.609026 -0.145424
v -22.303768 16.781658 -1.061095
v -16.45728 21.356421 -1.061096
v -22.303768 16.781658 -1.061095
v -16.639982 22.133268 -0.145424
v -16.639982 22.133268 -0.145424
v -22.303768 16.781658 -1.061095
v -22.851876 17.21324 -0.145424
v 21.910302 3.230003 0.401245
v -22.121065 3.230002 0.401246
v 21.910301 2.884738 -0.145425
v -16.45728 21.356421 0.947916
v -22.851876 17.21324 -0.145424
v -22.303768 16.781658 0.947916
v 22.275707 17.213241 0.947915
v 16.246515 21.356422 0.947915
v 21.727598 16.781659 -0.145425
v 21.727598 16.781659 -0.145425
v 16.246515 21.356422 0.947915
v 16.063813 20.665892 -0.145425
v 21.727598 16.781659 -0.145425
v 16.063813 20.665892 -0.145425
v 22.275707 17.213241 -1.061097
v 22.275707 17.213241 -1.061097
v 16.063813 20.665892 -0.145425
v 16.246515 21.356422 -1.061096
v 22.275707 17.213241 -1.061097
v 16.246515 21.356422 -1.061096
v 22.823815 17.558506 -0.145425
v 22.823815 17.558506 -0.145425
v 16.246515 21.356422 -1.061096
v 16.611921 21.960636 -0.145425
v 22.823815 17.558506 -0.145425
v 16.611921 21.960636 -0.145425
v 22.275707 17.213241 0.947915
v 22.275707 17.213241 0.947915
v 16.611921 21.960636 -0.145425
v 16.246515 21.356422 0.947915
v 22.275707 1.589994 0.947915
v 22.275707 17.213241 0.947915
v 21.727599 1.589994 -0.145425
v 21.727599 1.589994 -0.145425
v 22.275707 17.213241 0.947915
v 21.727598 16.781659 -0.145425
v 21.727599 1.589994 -0.145425
v 21.727598 16.781659 -0.145425
v 22.275707 1.589994 -1.061097
v 22.275707 1.589994 -1.061097
v 21.727598 16.781659 -0.145425
v 22.275707 17.213241 -1.061097
v 22.275707 1.589994 -1.061097
v 22.275707 17.213241 -1.061097
v 23.006518 1.589994 -0.145425
v 23.006518 1.589994 -0.145425
v 22.275707 17.213241 -1.061097
v 22.823815 17.558506 -0.145425
v 23.006518 1.589994 -0.145425
v 22.823815 17.558506 -0.145425
v 22.275707 1.589994 0.947915
v 22.275707 1.589994 0.947915
v 22.823815 17.558506 -0.145425
v 22.275707 17.213241 0.947915
v 22.275707 0.29525 1.685919
v 22.275707 1.589994 0.947915
v 21.179491 0.29525 -0.145425
v 21.727599 1.589994 -0.145425
v 21.179491 0.29525 -0.145425
v 21.727599 1.589994 -0.145425
v 22.275707 0.29525 -1.799101
v 22.275707 1.589994 -1.061097
v 22.275707 0.29525 -1.799101
v 22.275707 1.589994 -1.061097
v 23.371924 0.29525 -0.145425
v 23.006518 1.589994 -0.145425
v 23.371924 0.29525 -0.145425
v 23.006518 1.589994 -0.145425
v 22.275707 0.29525 1.685919
v 22.275707 1.589994 0.947915
v 21.179491 0.29525 -0.145425
v 22.275707 0.29525 -0.145425
v 22.275707 0.29525 1.685919
v 22.275707 0.29525 -1.799101
v 23.371924 0.29525 -0.145425
v 21.910301 14.796385 0.770247
v -22.121065 14.796384 0.770248
v 21.910301 14.278487 -0.145425
v 21.910301 14.278487 -0.145425
v -22.121065 14.796384 0.770248
v -21.938362 14.278486 -0.145424
v 21.910301 14.278487 -0.145425
v -21.938362 14.278486 -0.145424
v 21.910301 14.796385 -0.883429
v 21.910301 14.796385 -0.883429
v -21.938362 14.278486 -0.145424
v -22.121065 14.796384 -0.883428
v 21.910301 14.796385 -0.883429
v -22.121065 14.796384 -0.883428
v 21.910301 15.314283 -0.145425
v 21.910301 15.314283 -0.145425
v -22.121065 14.796384 -0.883428
v -22.121065 15.314281 -0.145424
v 21.910301 15.314283 -0.145425
v -22.121065 15.314281 -0.145424
v 21.910301 14.796385 0.770247
v 21.910301 14.796385 0.770247
v -22.121065 15.314281 -0.145424
v -22.121065 14.796384 0.770248
v -22.303768 14.278486 -0.145424
v 22.275707 14.278487 -0.145425
v 22.275707 3.402636 -0.145425
v -22.303768 3.402635 -0.145424
v -22.303768 3.402635 -0.145424
v 22.275707 3.402636 -0.145425
v 22.275707 14.278487 -0.145425
v -22.303768 14.278486 -0.145424

# 279 Texture Coordinates
vt 0.710938 0.832031
vt 0.804688 0.832031
vt 0.710938 0.855469
vt 0.488281 0.988281
vt 0.910156 0.964844
vt 0.910156 0.988281
vt 0.488281 0.894531
vt 0.910156 0.894531
vt 0.488281 0.917969
vt 0.488281 0.917969
vt 0.910156 0.894531
vt 0.910156 0.917969
vt 0.488281 0.917969
vt 0.910156 0.917969
vt 0.488281 0.941406
vt 0.488281 0.941406
vt 0.910156 0.917969
vt 0.910156 0.941406
vt 0.488281 0.941406
vt 0.910156 0.941406
vt 0.488281 0.964844
vt 0.488281 0.964844
vt 0.910156 0.941406
vt 0.910156 0.964844
vt 0.285156 0.855469
vt 0.710938 0.855469
vt 0.285156 0.878906
vt 0.285156 0.878906
vt 0.710938 0.855469
vt 0.710938 0.878906
vt 0.285156 0.78125
vt 0.710938 0.78125
vt 0.285156 0.804688
vt 0.285156 0.804688
vt 0.710938 0.78125
vt 0.710938 0.804688
vt 0.285156 0.804688
vt 0.710938 0.804688
vt 0.285156 0.832031
vt 0.285156 0.832031
vt 0.710938 0.804688
vt 0.710938 0.832031
vt 0.285156 0.832031
vt 0.710938 0.832031
vt 0.285156 0.855469
vt 0.285156 0.855469
vt 0.710938 0.832031
vt 0.710938 0.855469
vt 0.988281 0.855469
vt 0.988281 0.828125
vt 0.988281 0.878906
vt 0.988281 0.78125
vt 0.988281 0.828125
vt 0.988281 0.804688
vt 0.988281 0.804688
vt 0.988281 0.828125
vt 0.988281 0.828125
vt 0.988281 0.828125
vt 0.988281 0.828125
vt 0.988281 0.855469
vt 0.972656 0.855469
vt 0.988281 0.855469
vt 0.972656 0.878906
vt 0.972656 0.878906
vt 0.988281 0.855469
vt 0.988281 0.878906
vt 0.972656 0.78125
vt 0.988281 0.78125
vt 0.972656 0.804688
vt 0.972656 0.804688
vt 0.988281 0.78125
vt 0.988281 0.804688
vt 0.972656 0.804688
vt 0.988281 0.804688
vt 0.972656 0.832031
vt 0.972656 0.832031
vt 0.988281 0.804688
vt 0.988281 0.828125
vt 0.972656 0.832031
vt 0.988281 0.828125
vt 0.972656 0.855469
vt 0.972656 0.855469
vt 0.988281 0.828125
vt 0.988281 0.855469
vt 0.804688 0.855469
vt 0.972656 0.855469
vt 0.804688 0.878906
vt 0.804688 0.878906
vt 0.972656 0.855469
vt 0.972656 0.878906
vt 0.804688 0.78125
vt 0.972656 0.78125
vt 0.804688 0.804688
vt 0.804688 0.804688
vt 0.972656 0.78125
vt 0.972656 0.804688
vt 0.804688 0.804688
vt 0.972656 0.804688
vt 0.804688 0.832031
vt 0.804688 0.832031
vt 0.972656 0.804688
vt 0.972656 0.832031
vt 0.804688 0.832031
vt 0.972656 0.832031
vt 0.804688 0.855469
vt 0.804688 0.855469
vt 0.972656 0.832031
vt 0.972656 0.855469
vt 0.710938 0.855469
vt 0.804688 0.855469
vt 0.710938 0.878906
vt 0.710938 0.878906
vt 0.804688 0.855469
vt 0.804688 0.878906
vt 0.710938 0.78125
vt 0.804688 0.78125
vt 0.710938 0.804688
vt 0.710938 0.804688
vt 0.804688 0.78125
vt 0.804688 0.804688
vt 0.710938 0.804688
vt 0.804688 0.804688
vt 0.710938 0.832031
vt 0.710938 0.832031
vt 0.804688 0.804688
vt 0.804688 0.832031
vt 0.488281 0.964844
vt 0.910156 0.964844
vt 0.488281 0.988281
vt 0.710938 0.855469
vt 0.804688 0.832031
vt 0.804688 0.855469
vt 0.191406 0.855469
vt 0.285156 0.855469
vt 0.191406 0.878906
vt 0.191406 0.878906
vt 0.285156 0.855469
vt 0.285156 0.878906
vt 0.191406 0.78125
vt 0.285156 0.78125
vt 0.191406 0.804688
vt 0.191406 0.804688
vt 0.285156 0.78125
vt 0.285156 0.804688
vt 0.191406 0.804688
vt 0.285156 0.804688
vt 0.191406 0.832031
vt 0.191406 0.832031
vt 0.285156 0.804688
vt 0.285156 0.832031
vt 0.191406 0.832031
vt 0.285156 0.832031
vt 0.191406 0.855469
vt 0.191406 0.855469
vt 0.285156 0.832031
vt 0.285156 0.855469
vt 0.023438 0.855469
vt 0.191406 0.855469
vt 0.023438 0.878906
vt 0.023438 0.878906
vt 0.191406 0.855469
vt 0.191406 0.878906
vt 0.023438 0.78125
vt 0.191406 0.78125
vt 0.023438 0.804688
vt 0.023438 0.804688
vt 0.191406 0.78125
vt 0.191406 0.804688
vt 0.023438 0.804688
vt 0.191406 0.804688
vt 0.023438 0.832031
vt 0.023438 0.832031
vt 0.191406 0.804688
vt 0.191406 0.832031
vt 0.023438 0.832031
vt 0.191406 0.832031
vt 0.023438 0.855469
vt 0.023438 0.855469
vt 0.191406 0.832031
vt 0.191406 0.855469
vt 0.007813 0.855469
vt 0.023438 0.855469
vt 0.007813 0.878906
vt 0.007813 0.878906
vt 0.023438 0.855469
vt 0.023438 0.878906
vt 0.007813 0.78125
vt 0.023438 0.78125
vt 0.007813 0.804688
vt 0.007813 0.804688
vt 0.023438 0.78125
vt 0.023438 0.804688
vt 0.007813 0.804688
vt 0.023438 0.804688
vt 0.007813 0.832031
vt 0.007813 0.832031
vt 0.023438 0.804688
vt 0.023438 0.832031
vt 0.007813 0.832031
vt 0.023438 0.832031
vt 0.007813 0.855469
vt 0.007813 0.855469
vt 0.023438 0.832031
vt 0.023438 0.855469
vt 0.007813 0.878906
vt 0.007813 0.832031
vt 0.007813 0.855469
vt 0.007813 0.804688
vt 0.007813 0.832031
vt 0.007813 0.78125
vt 0.007813 0.832031
vt 0.007813 0.832031
vt 0.007813 0.804688
vt 0.007813 0.855469
vt 0.007813 0.832031
vt 0.007813 0.832031
vt 0.050781 0.96875
vt 0.476563 0.96875
vt 0.050781 0.996094
vt 0.050781 0.996094
vt 0.476563 0.96875
vt 0.476563 0.996094
vt 0.0 1.0
vt 0.0 1.0
vt 0.0 1.0
vt 0.050781 0.898438
vt 0.476563 0.898438
vt 0.050781 0.921875
vt 0.050781 0.921875
vt 0.476563 0.898438
vt 0.476563 0.921875
vt 0.050781 0.921875
vt 0.476563 0.921875
vt 0.050781 0.945313
vt 0.050781 0.945313
vt 0.476563 0.921875
vt 0.476563 0.945313
vt 0.050781 0.945313
vt 0.476563 0.945313
vt 0.050781 0.96875
vt 0.050781 0.96875
vt 0.476563 0.945313
vt 0.476563 0.96875
vt 0.996094 0.417969
vt 0.0 0.417969
vt 0.0 0.105469
vt 0.996094 0.417969
vt 0.0 0.105469
vt 0.996094 0.105469
vt 1.0 0.40625
vt 0.0 0.40625
vt 0.0 0.058594
vt 1.0 0.40625
vt 0.0 0.058594
vt 1.0 0.058594
vt 0.0 1.0
vt 0.0 1.0
vt 0.0 1.0
vt 0.0 1.0
vt 0.0 1.0
vt 0.0 1.0
vt 0.0 1.0
vt 0.0 1.0
vt 0.0 1.0
vt 0.0 1.0
vt 0.0 1.0
vt 0.0 1.0
vt 0.0 1.0
vt 0.0 1.0
vt 0.0 1.0
vt 0.0 1.0
vt 0.0 1.0
vt 0.0 1.0
vt 0.0 1.0
vt 0.0 1.0
vt 0.0 1.0
vt 0.0 1.0
vt 0.0 1.0
vt 0.0 1.0

# 279 Vertex Normals
vn -0.518016 0.654033 0.551272
vn -0.518016 0.654033 0.551272
vn -0.518016 0.654033 0.551272
vn 0.0 -0.845489 0.533993
vn 0.0 -0.845489 0.533993
vn 0.0 -0.845489 0.533993
vn 0.0 -0.845489 -0.533993
vn 0.0 -0.845489 -0.533993
vn 0.0 -0.845489 -0.533993
vn 0.0 -0.845489 -0.533993
vn 0.0 -0.845489 -0.533993
vn 0.0 -0.845489 -0.533993
vn -0.0 0.845489 -0.533993
vn -0.0 0.845489 -0.533993
vn -0.0 0.845489 -0.533993
vn -0.0 0.845489 -0.533993
vn -0.0 0.845489 -0.533993
vn -0.0 0.845489 -0.533993
vn -0.0 0.845489 0.533993
vn -0.0 0.845489 0.533993
vn -0.0 0.845489 0.533993
vn -0.0 0.845489 0.533993
vn -0.0 0.845489 0.533993
vn -0.0 0.845489 0.533993
vn 0.0 -0.845489 0.533993
vn 0.0 -0.845489 0.533993
vn 0.0 -0.845489 0.533993
vn 0.0 -0.845489 0.533992
vn 0.0 -0.845489 0.533992
vn 0.0 -0.845489 0.533992
vn -0.0 -0.798416 -0.602106
vn -0.0 -0.798416 -0.602106
vn -0.0 -0.798416 -0.602106
vn 0.0 -0.798417 -0.602105
vn 0.0 -0.798417 -0.602105
vn 0.0 -0.798417 -0.602105
vn -0.0 0.834664 -0.55076
vn -0.0 0.834664 -0.55076
vn -0.0 0.834664 -0.55076
vn 0.003961 0.762928 -0.646471
vn 0.003961 0.762928 -0.646471
vn 0.003961 0.762928 -0.646471
vn 0.004541 0.874589 0.484843
vn 0.004541 0.874589 0.484843
vn 0.004541 0.874589 0.484843
vn -0.0 0.81518 0.579208
vn -0.0 0.81518 0.579208
vn -0.0 0.81518 0.579208
vn 0.0 -1.0 0.0
vn 0.0 -1.0 0.0
vn 0.0 -1.0 0.0
vn 0.0 -1.0 0.0
vn 0.0 -1.0 0.0
vn 0.0 -1.0 0.0
vn 0.0 -1.0 0.0
vn 0.0 -1.0 0.0
vn 0.0 -1.0 0.0
vn 0.0 -1.0 0.0
vn 0.0 -1.0 0.0
vn 0.0 -1.0 0.0
vn 0.808328 0.233832 0.540304
vn 0.809844 0.231408 0.539077
vn 0.809844 0.231408 0.539077
vn 0.809844 0.231408 0.539077
vn 0.809844 0.231408 0.539077
vn 0.811352 0.228982 0.537843
vn 0.763239 0.215403 -0.609154
vn 0.780584 0.258382 -0.569146
vn 0.780584 0.258382 -0.569146
vn 0.780584 0.258382 -0.569146
vn 0.780584 0.258382 -0.569146
vn 0.795003 0.300393 -0.527005
vn -0.823466 0.280961 -0.492915
vn -0.836928 0.260489 -0.481348
vn -0.836928 0.260489 -0.481348
vn -0.836928 0.260489 -0.481348
vn -0.836928 0.260489 -0.481348
vn -0.849777 0.239826 -0.469429
vn -0.866795 0.244629 0.434538
vn -0.862123 0.224818 0.454094
vn -0.862123 0.224818 0.454094
vn -0.862123 0.224818 0.454094
vn -0.862123 0.224818 0.454094
vn -0.856764 0.204828 0.473288
vn 0.893956 0.0 0.448155
vn 0.893956 0.0 0.448155
vn 0.893956 0.0 0.448155
vn 0.831334 0.009998 0.555682
vn 0.831334 0.009998 0.555682
vn 0.831334 0.009998 0.555682
vn 0.858839 0.010329 -0.512141
vn 0.858839 0.010329 -0.512141
vn 0.858839 0.010329 -0.512141
vn 0.781586 -0.0 -0.623797
vn 0.781586 -0.0 -0.623797
vn 0.781586 -0.0 -0.623797
vn -0.858027 0.0 -0.513604
vn -0.858027 0.0 -0.513604
vn -0.858027 0.0 -0.513604
vn -0.858028 -0.0 -0.513603
vn -0.858028 -0.0 -0.513603
vn -0.858028 -0.0 -0.513603
vn -0.893956 -0.0 0.448156
vn -0.893956 -0.0 0.448156
vn -0.893956 -0.0 0.448156
vn -0.893956 -0.0 0.448154
vn -0.893956 -0.0 0.448154
vn -0.893956 -0.0 0.448154
vn 0.528338 -0.675209 0.514735
vn 0.528338 -0.675209 0.514735
vn 0.528338 -0.675209 0.514735
vn 0.547497 -0.739703 0.391264
vn 0.547497 -0.739703 0.391264
vn 0.547497 -0.739703 0.391264
vn 0.481691 -0.650795 -0.58689
vn 0.481691 -0.650795 -0.58689
vn 0.481691 -0.650795 -0.58689
vn 0.547335 -0.699487 -0.459502
vn 0.547335 -0.699487 -0.459502
vn 0.547335 -0.699487 -0.459502
vn -0.483295 0.617645 -0.620436
vn -0.483295 0.617645 -0.620436
vn -0.483295 0.617645 -0.620436
vn -0.49882 0.629797 -0.595428
vn -0.49882 0.629797 -0.595428
vn -0.49882 0.629797 -0.595428
vn 0.0 -0.845489 0.533993
vn 0.0 -0.845489 0.533993
vn 0.0 -0.845489 0.533993
vn -0.523793 0.669401 0.526823
vn -0.523793 0.669401 0.526823
vn -0.523793 0.669401 0.526823
vn -0.483659 -0.703825 0.520292
vn -0.483659 -0.703825 0.520292
vn -0.483659 -0.703825 0.520292
vn -0.481681 -0.702363 0.52409
vn -0.481681 -0.702363 0.52409
vn -0.481681 -0.702363 0.52409
vn -0.457408 -0.666969 -0.588159
vn -0.457408 -0.666969 -0.588159
vn -0.457408 -0.666969 -0.588159
vn -0.456451 -0.664231 -0.591988
vn -0.456451 -0.664231 -0.591988
vn -0.456451 -0.664231 -0.591988
vn 0.474905 0.691086 -0.544853
vn 0.474905 0.691086 -0.544853
vn 0.474905 0.691086 -0.544853
vn 0.458318 0.646738 -0.609651
vn 0.458318 0.646738 -0.609651
vn 0.458318 0.646738 -0.609651
vn 0.507157 0.715654 0.480241
vn 0.507157 0.715654 0.480241
vn 0.507157 0.715654 0.480241
vn 0.475996 0.692674 0.541877
vn 0.475996 0.692674 0.541877
vn 0.475996 0.692674 0.541877
vn -0.893956 0.0 0.448155
vn -0.893956 0.0 0.448155
vn -0.893956 0.0 0.448155
vn -0.893956 -0.0 0.448155
vn -0.893956 -0.0 0.448155
vn -0.893956 -0.0 0.448155
vn -0.858027 0.0 -0.513605
vn -0.858027 0.0 -0.513605
vn -0.858027 0.0 -0.513605
vn -0.858027 -0.0 -0.513604
vn -0.858027 -0.0 -0.513604
vn -0.858027 -0.0 -0.513604
vn 0.781588 0.0 -0.623796
vn 0.781588 0.0 -0.623796
vn 0.781588 0.0 -0.623796
vn 0.856355 0.009798 -0.516295
vn 0.856355 0.009798 -0.516295
vn 0.856355 0.009798 -0.516295
vn 0.831339 0.009512 0.555684
vn 0.831339 0.009512 0.555684
vn 0.831339 0.009512 0.555684
vn 0.893957 0.0 0.448153
vn 0.893957 0.0 0.448153
vn 0.893957 0.0 0.448153
vn -0.823466 0.280961 0.492915
vn -0.830912 0.317887 0.456654
vn -0.830912 0.317887 0.456654
vn -0.830912 0.317887 0.456654
vn -0.830912 0.317887 0.456654
vn -0.836088 0.353943 0.419144
vn -0.786004 0.332741 -0.521039
vn -0.805225 0.307038 -0.507287
vn -0.805225 0.307038 -0.507287
vn -0.805225 0.307038 -0.507287
vn -0.805225 0.307038 -0.507287
vn -0.823465 0.280962 -0.492916
vn 0.795003 0.300393 -0.527005
vn 0.780585 0.258382 -0.569145
vn 0.780585 0.258382 -0.569145
vn 0.780585 0.258382 -0.569145
vn 0.780585 0.258382 -0.569145
vn 0.76324 0.215404 -0.609152
vn 0.833926 0.235353 0.499176
vn 0.813967 0.268898 0.514928
vn 0.813967 0.268898 0.514928
vn 0.813967 0.268898 0.514928
vn 0.813967 0.268898 0.514928
vn 0.792567 0.301968 0.529767
vn 0.0 -1.0 0.0
vn 0.0 -1.0 0.0
vn 0.0 -1.0 0.0
vn 0.0 -1.0 0.0
vn 0.0 -1.0 0.0
vn 0.0 -1.0 0.0
vn 0.0 -1.0 0.0
vn 0.0 -1.0 0.0
vn 0.0 -1.0 0.0
vn 0.0 -1.0 0.0
vn 0.0 -1.0 0.0
vn 0.0 -1.0 0.0
vn 0.0 -0.870423 0.492305
vn 0.0 -0.870423 0.492305
vn 0.0 -0.870423 0.492305
vn 0.0 -0.870423 0.492305
vn 0.0 -0.870423 0.492305
vn 0.0 -0.870423 0.492305
vn -0.0 0.870423 -0.492305
vn -0.0 0.870423 -0.492305
vn -0.0 0.870423 -0.492305
vn -0.0 -0.818557 -0.574426
vn -0.0 -0.818557 -0.574426
vn -0.0 -0.818557 -0.574426
vn 0.0 -0.818557 -0.574426
vn 0.0 -0.818557 -0.574426
vn 0.0 -0.818557 -0.574426
vn -0.0 0.818557 -0.574426
vn -0.0 0.818557 -0.574426
vn -0.0 0.818557 -0.574426
vn -0.0 0.818557 -0.574426
vn -0.0 0.818557 -0.574426
vn -0.0 0.818557 -0.574426
vn 0.0 0.870423 0.492305
vn 0.0 0.870423 0.492305
vn 0.0 0.870423 0.492305
vn -0.0 0.870423 0.492305
vn -0.0 0.870423 0.492305
vn -0.0 0.870423 0.492305
vn -0.0 -0.0 -1.0
vn -0.0 0.0 -1.0
vn -0.0 -0.0 -1.0
vn -0.0 -0.0 -1.0
vn -0.0 -0.0 -1.0
vn -0.0 -0.0 -1.0
vn 0.0 -0.0 1.0
vn 0.0 0.0 1.0
vn 0.0 -0.0 1.0
vn 0.0 -0.0 1.0
vn 0.0 -0.0 1.0
vn 0.0 -0.0 1.0
vn -0.0 -0.0 -1.0
vn 0.0 0.0 -1.0
vn 0.0 0.0 -1.0
vn 0.0 0.0 1.0
vn 0.0 -0.0 1.0
vn 0.0 0.0 1.0
vn 0.000003 1.0 0.000027
vn 0.000003 1.0 0.000027
vn 0.000003 1.0 0.000027
vn 0.0 -1.0 -0.000005
vn 0.0 -1.0 -0.000005
vn 0.0 -1.0 -0.000005
vn 0.00002 1.0 0.0
vn 0.00002 1.0 0.0
vn 0.00002 1.0 0.0
vn -0.000003 -1.0 0.0
vn -0.000003 -1.0 0.0
vn -0.000003 -1.0 0.0
vn -0.0 0.0 -1.0
vn 0.0 0.0 -1.0
vn 0.0 0.0 -1.0
vn 0.0 0.0 1.0
vn 0.0 0.0 1.0
vn 0.0 0.0 1.0

# Group, 93 grouped triangles

usemtl skin
o Group
g Group

f 1/1/1 2/2/2 3/3/3
f 4/4/4 5/5/5 6/6/6
f 7/7/7 8/8/8 9/9/9
f 10/10/10 11/11/11 12/12/12
f 13/13/13 14/14/14 15/15/15
f 16/16/16 17/17/17 18/18/18
f 19/19/19 20/20/20 21/21/21
f 22/22/22 23/23/23 24/24/24
f 25/25/25 26/26/26 27/27/27
f 28/28/28 29/29/29 30/30/30
f 31/31/31 32/32/32 33/33/33
f 34/34/34 35/35/35 36/36/36
f 37/37/37 38/38/38 39/39/39
f 40/40/40 41/41/41 42/42/42
f 43/43/43 44/44/44 45/45/45
f 46/46/46 47/47/47 48/48/48
f 49/49/49 50/50/50 51/51/51
f 51/52/52 50/53/53 52/54/54
f 52/55/55 50/56/56 53/57/57
f 53/58/58 50/59/59 49/60/60
f 54/61/61 55/62/62 56/63/63
f 56/64/64 55/65/65 57/66/66
f 58/67/67 59/68/68 60/69/69
f 60/70/70 59/71/71 61/72/72
f 62/73/73 63/74/74 64/75/75
f 64/76/76 63/77/77 65/78/78
f 66/79/79 67/80/80 68/81/81
f 68/82/82 67/83/83 69/84/84
f 70/85/85 71/86/86 72/87/87
f 73/88/88 74/89/89 75/90/90
f 76/91/91 77/92/92 78/93/93
f 79/94/94 80/95/95 81/96/96
f 82/97/97 83/98/98 84/99/99
f 85/100/100 86/101/101 87/102/102
f 88/103/103 89/104/104 90/105/105
f 91/106/106 92/107/107 93/108/108
f 94/109/109 95/110/110 96/111/111
f 97/112/112 98/113/113 99/114/114
f 100/115/115 101/116/116 102/117/117
f 103/118/118 104/119/119 105/120/120
f 106/121/121 107/122/122 108/123/123
f 109/124/124 110/125/125 111/126/126
f 112/127/127 113/128/128 114/129/129
f 115/130/130 116/131/131 117/132/132
f 118/133/133 119/134/134 120/135/135
f 121/136/136 122/137/137 123/138/138
f 124/139/139 125/140/140 126/141/141
f 127/142/142 128/143/143 129/144/144
f 130/145/145 131/146/146 132/147/147
f 133/148/148 134/149/149 135/150/150
f 136/151/151 137/152/152 138/153/153
f 139/154/154 140/155/155 141/156/156
f 142/157/157 143/158/158 144/159/159
f 145/160/160 146/161/161 147/162/162
f 148/163/163 149/164/164 150/165/165
f 151/166/166 152/167/167 153/168/168
f 154/169/169 155/170/170 156/171/171
f 157/172/172 158/173/173 159/174/174
f 160/175/175 161/176/176 162/177/177
f 163/178/178 164/179/179 165/180/180
f 166/181/181 167/182/182 168/183/183
f 168/184/184 167/185/185 169/186/186
f 170/187/187 171/188/188 172/189/189
f 172/190/190 171/191/191 173/192/192
f 174/193/193 175/194/194 176/195/195
f 176/196/196 175/197/197 177/198/198
f 178/199/199 179/200/200 180/201/201
f 180/202/202 179/203/203 181/204/204
f 182/205/205 183/206/206 184/207/207
f 185/208/208 183/209/209 182/210/210
f 186/211/211 183/212/212 185/213/213
f 184/214/214 183/215/215 186/216/216
f 187/217/217 188/218/218 189/219/219
f 190/220/220 191/221/221 192/222/222
f 192/223/223 191/224/224 190/225/225
f 193/226/226 194/227/227 195/228/228
f 196/229/229 197/230/230 198/231/231
f 199/232/232 200/233/233 201/234/234
f 202/235/235 203/236/236 204/237/237
f 205/238/238 206/239/239 207/240/240
f 208/241/241 209/242/242 210/243/243
f 211/244/244 212/245/245 213/246/246
f 211/247/247 213/248/248 214/249/249
f 215/250/250 216/251/251 217/252/252
f 215/253/253 217/254/254 218/255/255
f 214/256/256 215/257/257 218/258/258
f 214/259/259 218/260/260 211/261/261
f 214/262/262 213/263/263 216/264/264
f 214/265/265 216/266/266 215/267/267
f 218/268/268 217/269/269 212/270/270
f 218/271/271 212/272/272 211/273/273
f 212/274/274 217/275/275 216/276/276
f 212/277/277 216/278/278 213/279/279
