# Exported from Wings 3D 0.99.02
mtllib compas.mtl
o cube1
#72 vertices, 59 faces
v -0.37142400 -4.7111111e-2 0.29200000
v 0.37142400 -4.7111111e-2 0.29200000
v -0.37142400 -4.7111111e-2 -0.29200000
v 0.37142400 -4.7111111e-2 -0.29200000
v -0.37142400 1.74931255 0.29200000
v 0.37142400 1.74931255 0.29200000
v -0.37142400 1.91520055 -0.29200000
v 0.37142400 1.91520055 -0.29200000
v -0.33373566 1.79729904 0.26258575
v 0.33373566 1.79729904 0.26258575
v 0.33373566 1.94259074 -0.25574591
v -0.33373566 1.94259074 -0.25574591
v 0.26934363 1.67593664 2.0428104e-17
v 0.23397433 1.67593664 0.13200000
v 0.13734363 1.67593664 0.22863071
v 5.3436265e-3 1.67593664 0.26400000
v -0.12665637 1.67593664 0.22863071
v -0.22328708 1.67593664 0.13200000
v -0.25865637 1.67593664 5.2758779e-17
v -0.22328708 1.67593664 -0.13200000
v -0.12665637 1.67593664 -0.22863071
v 5.3436265e-3 1.67593664 -0.26400000
v 0.13734363 1.67593664 -0.22863071
v 0.23397433 1.67593664 -0.13200000
v 0.26934363 1.96849411 -8.9574178e-17
v 0.23397433 1.93335841 0.12810016
v 0.13734363 1.90764923 0.22200886
v 5.3436265e-3 1.89824278 0.25641685
v -0.12665637 1.90764923 0.22200886
v -0.22328708 1.93335841 0.12810016
v -0.25865637 1.96849411 -8.4298939e-17
v -0.22328708 2.00364072 -0.12794234
v -0.12665637 2.02937378 -0.22152582
v 5.3436265e-3 2.03879327 -0.25576623
v 0.13734363 2.02937378 -0.22152582
v 0.23397433 2.00364072 -0.12794234
v 0.18283140 1.99825545 9.8774352e-2
v 0.21028885 2.02553664 -1.0508308e-16
v 0.18283140 2.05281783 -9.8774352e-2
v 0.10781624 2.07278905 -0.17108220
v 5.3436265e-3 2.08009903 -0.19754870
v -9.7128985e-2 2.07278905 -0.17108220
v -0.17214414 2.05281783 -9.8774352e-2
v -0.19960160 2.02553664 -1.0423462e-16
v -0.17214414 1.99825545 9.8774352e-2
v -9.7128985e-2 1.97828423 0.17108220
v 5.3436265e-3 1.97097425 0.19754870
v 0.10781624 1.97828423 0.17108220
v 0.15869306 2.00196569 8.5341040e-2
v 0.18241630 2.02553664 9.9486165e-16
v 0.15869306 2.04910759 -8.5341040e-2
v 9.3879963e-2 2.06636272 -0.14781502
v 5.3436265e-3 2.07267854 -0.17068208
v -8.3192710e-2 2.06636272 -0.14781502
v -0.14800581 2.04910759 -8.5341040e-2
v -0.17172905 2.02553664 9.9621584e-16
v -0.14800581 2.00196569 8.5341040e-2
v -8.3192710e-2 1.98471056 0.14781502
v 5.3436265e-3 1.97839474 0.17068208
v 9.3879963e-2 1.98471056 0.14781502
v 0.14979879 1.97313382 8.0391260e-2
v 0.17214608 1.99533765 1.3787639e-15
v 0.14979879 2.01754149 -8.0391260e-2
v 8.8744855e-2 2.03379582 -0.13924175
v 5.3436265e-3 2.03974532 -0.16078252
v -7.8057602e-2 2.03379582 -0.13924175
v -0.13911154 2.01754149 -8.0391260e-2
v -0.16145883 1.99533765 1.3833532e-15
v -0.13911154 1.97313382 8.0391260e-2
v -7.8057602e-2 1.95687948 0.13924175
v 5.3436265e-3 1.95092998 0.16078252
v 8.8744855e-2 1.95687948 0.13924175
vt 1.7333333e-3 0.41740137
vt 1.1494399e-2 1.3288889e-2
vt 1.1494399e-2 0.24121118
vt 2.2833600e-2 0.50439046
vt 2.5122932e-2 0.33202238
vt 2.6757446e-2 0.73087444
vt 4.1605278e-2 0.79214770
vt 4.3341452e-2 0.67213294
vt 4.6051235e-2 0.73618669
vt 5.1616386e-2 0.42740122
vt 5.9123874e-2 0.68557974
vt 5.9734659e-2 0.78620401
vt 6.7303784e-2 0.48814517
vt 6.7671747e-2 0.36564361
vt 6.8277520e-2 0.42738690
vt 8.1779938e-2 0.48018808
vt 8.2146318e-2 0.37378624
vt 8.3236455e-2 0.56927966
vt 8.4789659e-2 0.83720368
vt 8.6588165e-2 0.62892795
vt 8.7672915e-2 0.26917380
vt 9.3769692e-2 2.2169085e-2
vt 9.3769692e-2 0.24121118
vt 9.5541843e-2 0.64811537
vt 9.6379605e-2 0.82293129
vt 0.11041133 0.53381834
vt 0.11134497 0.32067082
vt 0.11898309 0.51996429
vt 0.11969961 0.33485222
vt 0.14256666 0.61149089
vt 0.14628530 0.63315884
vt 0.14628530 0.85546137
vt 0.14628530 0.83663964
vt 0.15000394 0.61149089
vt 0.16868993 0.59570467
vt 0.16918761 0.55156245
vt 0.16936958 0.53542266
vt 0.17178825 0.32089525
vt 0.17197363 0.30445266
vt 0.17262398 0.24676867
vt 0.17539481 4.0222277e-2
vt 0.17539481 0.24121118
vt 0.19619100 0.82293129
vt 0.19702876 0.64811537
vt 0.20598244 0.62892795
vt 0.20778094 0.83720368
vt 0.22009178 0.52110423
vt 0.22354897 0.33602306
vt 0.22834901 0.53514802
vt 0.23222122 0.32203363
vt 0.23283594 0.78620401
vt 0.23344673 0.68557974
vt 0.24651937 0.73618669
vt 0.24922915 0.67213294
vt 0.25096532 0.79214770
vt 0.25471747 0.57121301
vt 0.25644445 6.3713770e-2
vt 0.25644445 0.24121118
vt 0.25704831 0.27108341
vt 0.25818227 0.48217692
vt 0.26021491 0.37579386
vt 0.26581316 0.73087444
vt 0.27247534 0.49045835
vt 0.27287171 0.42969358
vt 0.27486939 0.36797964
vt 0.28952828 0.43008354
vt 0.31656796 0.50770214
vt 0.31816541 0.33532626
vt 0.33754006 8.7200964e-2
vt 0.33754006 0.24121118
vt 0.33962411 0.42121089
vt 0.35696509 0.38783402
vt 0.35829963 0.84756053
vt 0.41930706 0.10462895
vt 0.41930706 0.24121118
vt 0.49389628 0.42630077
vt 0.49421025 0.28531089
vt 0.49511800 0.84716336
vt 0.50173333 0.11108120
vt 0.50173333 0.24121118
vt 0.50420598 0.29393034
vt 0.50423843 0.41380318
vt 0.58415961 0.10462895
vt 0.58415961 0.24121118
vt 0.65465782 0.29257456
vt 0.65651777 0.41298832
vt 0.66452211 0.28379700
vt 0.66592661 8.7200964e-2
vt 0.66592661 0.24121118
vt 0.66704916 0.42535987
vt 0.66915097 0.84665817
vt 0.74702222 6.3713770e-2
vt 0.74702222 0.24121118
vt 0.80391837 0.38575051
vt 0.80619122 0.84629348
vt 0.80686764 0.98335484
vt 0.82807185 4.0222277e-2
vt 0.82807185 0.24121118
vt 0.90969698 2.2169085e-2
vt 0.90969698 0.24121118
vt 0.97826041 0.38489011
vt 0.98053326 0.84543308
vt 0.98120968 0.98249443
vt 0.99197227 1.3288889e-2
vt 0.99197227 0.24121118
vn -0.57735027 -0.57735027 0.57735027
vn 0.57735027 -0.57735027 0.57735027
vn -0.57735027 -0.57735027 -0.57735027
vn 0.57735027 -0.57735027 -0.57735027
vn -0.58249462 0.41315281 0.70000340
vn 0.58249462 0.41315281 0.70000340
vn -0.63966123 0.55713030 -0.52956523
vn 0.63966123 0.55713030 -0.52956523
vn -0.26674174 0.82414130 0.49963984
vn 0.26674174 0.82414130 0.49963984
vn 0.27565329 0.95969608 -5.4760427e-2
vn -0.27565329 0.95969608 -5.4760427e-2
vn 0.99999827 1.8544961e-3 1.5644718e-4
vn 0.86284893 8.9093342e-3 0.50538337
vn 0.49426729 2.3581810e-2 0.86899007
vn 0.0000000e+0 3.1271954e-2 0.99951091
vn -0.49426729 2.3581810e-2 0.86899007
vn -0.86284893 8.9093342e-3 0.50538337
vn -0.99999827 1.8544961e-3 1.5644718e-4
vn -0.86336889 6.9303694e-3 -0.50452565
vn -0.49555952 1.6744964e-2 -0.86841256
vn -4.8805608e-16 2.1409004e-2 -0.99977080
vn 0.49555952 1.6744964e-2 -0.86841256
vn 0.86336889 6.9303694e-3 -0.50452565
vn 0.91499625 0.39000368 0.10333921
vn 0.75726929 0.36448073 0.54193821
vn 0.42111804 0.35345864 0.83530030
vn 1.1232457e-16 0.35118799 0.93630497
vn -0.42111804 0.35345864 0.83530030
vn -0.75726929 0.36448073 0.54193821
vn -0.91499625 0.39000368 0.10333921
vn -0.82396708 0.42609785 -0.37352225
vn -0.48763882 0.45822540 -0.74312709
vn -3.6721258e-16 0.47103011 -0.88211713
vn 0.48763882 0.45822540 -0.74312709
vn 0.82396708 0.42609785 -0.37352225
vn 0.29089172 0.86520859 0.40840680
vn 0.36327155 0.89909126 0.24427173
vn 0.33938170 0.93917203 5.2687365e-2
vn 0.20683221 0.97261250 -0.10604416
vn 3.4545140e-16 0.98574777 -0.16823000
vn -0.20683221 0.97261250 -0.10604416
vn -0.33938170 0.93917203 5.2687365e-2
vn -0.36327155 0.89909126 0.24427173
vn -0.29089172 0.86520859 0.40840680
vn -0.15829403 0.84418094 0.51215383
vn 2.9831044e-16 0.83726049 0.54680424
vn 0.15829403 0.84418094 0.51215383
vn -0.53397661 0.84068789 -9.0071305e-2
vn -0.56861232 0.79379292 0.21580740
vn -0.45333688 0.75377338 0.47572194
vn -0.24620688 0.72838524 0.63940371
vn 3.3710449e-16 0.71985034 0.69412930
vn 0.24620688 0.72838524 0.63940371
vn 0.45333688 0.75377338 0.47572194
vn 0.56861232 0.79379292 0.21580740
vn 0.53397661 0.84068789 -9.0071305e-2
vn 0.32659204 0.87985257 -0.34524932
vn 1.1544259e-16 0.89528744 -0.44548895
vn -0.32659204 0.87985257 -0.34524932
vn -0.69368182 0.68252517 -0.23014108
vn -0.74367766 0.64555033 0.17380536
vn -0.59568060 0.61175549 0.52049962
vn -0.32431727 0.58924769 0.74000370
vn -3.9148628e-16 0.58149433 0.81355046
vn 0.32431727 0.58924769 0.74000370
vn 0.59568060 0.61175549 0.52049962
vn 0.74367766 0.64555033 0.17380536
vn 0.69368182 0.68252517 -0.23014108
vn 0.42141961 0.71123733 -0.56262508
vn -4.7033153e-16 0.72201613 -0.69187622
vn -0.42141961 0.71123733 -0.56262508
g cube1_cube1_auv
usemtl cube1_auv
f 1/91/1 2/78/2 6/76/6 5/90/5
f 1/96/1 3/95/3 4/102/4 2/103/2
f 4/73/4 8/72/8 6/76/6 2/78/2
f 5/90/5 7/94/7 3/95/3 1/91/1
f 5/90/5 9/86/9 12/85/12 7/87/7
f 6/76/6 10/82/10 9/86/9 5/90/5
f 7/94/7 8/101/8 4/102/4 3/95/3
f 7/87/7 12/85/12 11/81/11 8/77/8
f 8/77/8 11/81/11 10/82/10 6/76/6
f 10/82/10 11/81/11 12/85/12 9/86/9
f 13/58/13 25/57/25 26/69/26 14/70/14
f 14/70/14 26/69/26 27/74/27 15/75/15
f 15/75/15 27/74/27 28/79/28 16/80/16
f 16/80/16 28/79/28 29/83/29 17/84/17
f 17/84/17 29/83/29 30/88/30 18/89/18
f 18/89/18 30/88/30 31/92/31 19/93/19
f 19/93/19 31/92/31 32/97/32 20/98/20
f 20/98/20 32/97/32 33/99/33 21/100/21
f 21/100/21 33/99/33 34/104/34 22/105/22
f 22/3/22 34/2/34 35/22/35 23/23/23
f 23/23/23 35/22/35 36/41/36 24/42/24
f 24/42/24 36/41/36 25/57/25 13/58/13
f 25/71/25 38/66/38 37/65/37 26/68/26
f 26/68/26 37/65/37 48/50/48 27/59/27
f 27/59/27 48/50/48 47/39/47 28/40/28
f 28/40/28 47/39/47 46/27/46 29/21/29
f 29/21/29 46/27/46 45/14/45 30/5/30
f 30/5/30 45/14/45 44/10/44 31/1/31
f 31/1/31 44/10/44 43/13/43 32/4/32
f 32/4/32 43/13/43 42/26/42 33/18/33
f 33/18/33 42/26/42 41/36/41 34/35/34
f 34/35/34 41/36/41 40/49/40 35/56/35
f 35/56/35 40/49/40 39/63/39 36/67/36
f 36/67/36 39/63/39 38/66/38 25/71/25
f 37/65/37 49/61/49 60/48/60 48/50/48
f 38/66/38 50/64/50 49/61/49 37/65/37
f 39/63/39 51/60/51 50/64/50 38/66/38
f 40/49/40 52/47/52 51/60/51 39/63/39
f 41/36/41 53/37/53 52/47/52 40/49/40
f 42/26/42 54/28/54 53/37/53 41/36/41
f 43/13/43 55/16/55 54/28/54 42/26/42
f 44/10/44 56/15/56 55/16/55 43/13/43
f 45/14/45 57/17/57 56/15/56 44/10/44
f 46/27/46 58/29/58 57/17/57 45/14/45
f 47/39/47 59/38/59 58/29/58 46/27/46
f 48/50/48 60/48/60 59/38/59 47/39/47
f 49/7/49 61/12/61 72/25/72 60/19/60
f 50/6/50 62/9/62 61/12/61 49/7/49
f 51/8/51 63/11/63 62/9/62 50/6/50
f 52/20/52 64/24/64 63/11/63 51/8/51
f 53/30/53 65/31/65 64/24/64 52/20/52
f 54/45/54 66/44/66 65/31/65 53/34/53
f 55/54/55 67/52/67 66/44/66 54/45/54
f 56/62/56 68/53/68 67/52/67 55/54/55
f 57/55/57 69/51/69 68/53/68 56/62/56
f 58/46/58 70/43/70 69/51/69 57/55/57
f 59/32/59 71/33/71 70/43/70 58/46/58
f 60/19/60 72/25/72 71/33/71 59/32/59
f 62/9/62 63/11/63 64/24/64 65/31/65 66/44/66 67/52/67 68/53/68 69/51/69 70/43/70 71/33/71 72/25/72 61/12/61
