# Wavefront OBJ file
# Exported by Misfit Model 3D 1.3.7a
# Sun Dec 28 11:03:50 2008

# 8 Vertices
v -5.930141 -0.0 -3.671247
v 9.224339 0.0 3.808752
v 9.224339 0.0 -3.671247
v -5.930141 -0.0 3.808752
v 9.224339 8.961039 -3.671247
v 9.224339 8.961039 3.808752
v -5.930141 8.961039 3.808752
v -5.930141 8.961039 -3.671247

# 36 Texture Coordinates
vt 0.433594 0.525391
vt 0.361328 0.525391
vt 0.433594 0.671875
vt 0.361328 0.671875
vt 0.433594 0.671875
vt 0.361328 0.525391
vt 0.521484 0.453125
vt 0.433594 0.453125
vt 0.521484 0.525391
vt 0.433594 0.525391
vt 0.521484 0.525391
vt 0.433594 0.453125
vt 0.275391 0.525391
vt 0.275391 0.669922
vt 0.361328 0.525391
vt 0.361328 0.671875
vt 0.361328 0.525391
vt 0.275391 0.669922
vt 0.591797 0.525391
vt 0.521484 0.525391
vt 0.591797 0.671875
vt 0.519531 0.671875
vt 0.591797 0.671875
vt 0.521484 0.525391
vt 0.519531 0.671875
vt 0.521484 0.525391
vt 0.433594 0.671875
vt 0.433594 0.525391
vt 0.433594 0.671875
vt 0.521484 0.525391
vt 0.433594 0.744141
vt 0.519531 0.744141
vt 0.433594 0.671875
vt 0.519531 0.671875
vt 0.433594 0.671875
vt 0.519531 0.744141

# 36 Vertex Normals
vn 0.0 -1.0 0.0
vn 0.0 -1.0 0.0
vn 0.0 -1.0 0.0
vn 0.0 -1.0 0.0
vn 0.0 -1.0 0.0
vn 0.0 -1.0 0.0
vn 1.0 0.0 -0.0
vn 1.0 0.0 0.0
vn 1.0 0.0 0.0
vn 1.0 0.0 0.0
vn 1.0 0.0 0.0
vn 1.0 0.0 0.0
vn 0.0 0.0 1.0
vn 0.0 0.0 1.0
vn 0.0 0.0 1.0
vn 0.0 -0.0 1.0
vn 0.0 0.0 1.0
vn 0.0 0.0 1.0
vn -0.0 1.0 0.0
vn -0.0 1.0 0.0
vn -0.0 1.0 0.0
vn -0.0 1.0 0.0
vn -0.0 1.0 0.0
vn -0.0 1.0 0.0
vn -0.0 0.0 -1.0
vn -0.0 0.0 -1.0
vn -0.0 0.0 -1.0
vn -0.0 0.0 -1.0
vn -0.0 0.0 -1.0
vn -0.0 0.0 -1.0
vn -1.0 0.0 -0.0
vn -1.0 -0.0 0.0
vn -1.0 -0.0 0.0
vn -1.0 -0.0 0.0
vn -1.0 -0.0 0.0
vn -1.0 -0.0 0.0

# Group, 12 grouped triangles

o Group
g Group

f 3/1/1 2/2/2 1/3/3
f 4/4/4 1/5/5 2/6/6
f 6/7/7 2/8/8 5/9/9
f 3/10/10 5/11/11 2/12/12
f 6/13/13 7/14/14 2/15/15
f 4/16/16 2/17/17 7/18/18
f 6/19/19 5/20/20 7/21/21
f 8/22/22 7/23/23 5/24/24
f 8/25/25 5/26/26 1/27/27
f 3/28/28 1/29/29 5/30/30
f 4/31/31 7/32/32 1/33/33
f 8/34/34 1/35/35 7/36/36
