# Wavefront OBJ file
# Exported by Misfit Model 3D 1.3.7a
# Sun Dec 28 09:13:02 2008

mtllib trap1.mtl

# 72 Vertices
v -2.340001 -0.211273 -15.394613
v -2.34 -0.211273 -10.784046
v -2.340003 83.672562 -10.784046
v -2.340003 83.672562 -15.394613
v 2.283517 -0.211273 -15.394613
v 2.283517 -0.211273 -10.784046
v 2.283515 83.672562 -15.394613
v 2.283515 83.672562 -10.784046
v -1.342773 70.185357 -11.475631
v -1.342772 70.185357 11.000887
v -1.342772 72.817007 11.000887
v -1.342773 72.817007 -11.475631
v 0.95992 70.185357 -11.475631
v 0.959921 70.185357 11.000887
v 0.959921 72.817007 11.000887
v 0.95992 72.817007 -11.475631
v -1.342773 59.987714 -11.475631
v -1.342772 59.987714 11.000887
v -1.342772 62.619364 11.000887
v -1.342773 62.619364 -11.475631
v 0.95992 59.987714 -11.475631
v 0.959921 59.987714 11.000887
v 0.959921 62.619364 11.000887
v 0.95992 62.619364 -11.475631
v -1.342772 50.119028 -11.475631
v -1.342772 50.119028 11.000887
v -1.342772 53.079634 11.000887
v -1.342773 53.079634 -11.475631
v 0.959921 50.119028 -11.475631
v 0.959921 50.119028 11.000887
v 0.959921 53.079634 11.000887
v 0.959921 53.079634 -11.475631
v -1.342772 39.921385 -11.475631
v -1.342772 39.921385 11.000887
v -1.342772 43.210947 11.000887
v -1.342772 43.210947 -11.475631
v 0.959921 39.921385 -11.475631
v 0.959922 39.921385 11.000887
v 0.959921 43.210947 11.000887
v 0.959921 43.210947 -11.475631
v -1.342772 30.052699 -11.475631
v -1.342771 30.052699 11.000887
v -1.342771 33.013305 11.000887
v -1.342772 33.013305 -11.475631
v 0.959921 30.052699 -11.475631
v 0.959922 30.052699 11.000887
v 0.959922 33.013305 11.000887
v 0.959921 33.013305 -11.475631
v -1.342772 20.184012 -11.475631
v -1.342771 20.184012 11.000887
v -1.342771 22.815662 11.000887
v -1.342772 22.815662 -11.475631
v 0.959922 20.184012 -11.475631
v 0.959922 20.184012 11.000887
v 0.959922 22.815662 11.000887
v 0.959921 22.815662 -11.475631
v -1.342771 9.328457 -11.475631
v -1.342771 9.328457 11.000887
v -1.342771 11.960107 11.000887
v -1.342771 11.960107 -11.475631
v 0.959922 9.328457 -11.475631
v 0.959922 9.328457 11.000887
v 0.959922 11.960107 11.000887
v 0.959922 11.960107 -11.475631
v -2.34 -0.211273 9.387188
v -2.34 -0.211273 13.997756
v -2.340002 83.672562 13.997756
v -2.340002 83.672562 9.387188
v 2.283518 -0.211273 9.387188
v 2.283518 -0.211273 13.997756
v 2.283516 83.672562 9.387188
v 2.283516 83.672562 13.997756

# 324 Texture Coordinates
vt 0.953125 0.585938
vt 0.953125 0.679688
vt 0.054688 0.679688
vt 0.953125 0.585938
vt 0.054688 0.679688
vt 0.054688 0.585938
vt 1.0 0.492188
vt 0.953125 0.492188
vt 0.953125 0.398438
vt 1.0 0.492188
vt 0.953125 0.398438
vt 1.0 0.398438
vt 0.054688 0.585938
vt 0.054688 0.492188
vt 0.953125 0.492188
vt 0.054688 0.585938
vt 0.953125 0.492188
vt 0.953125 0.585938
vt 0.003906 0.398438
vt 0.054688 0.398438
vt 0.054688 0.492188
vt 0.003906 0.398438
vt 0.054688 0.492188
vt 0.003906 0.492188
vt 0.953125 0.304688
vt 0.953125 0.398438
vt 0.054688 0.398438
vt 0.953125 0.304688
vt 0.054688 0.398438
vt 0.054688 0.300781
vt 0.054688 0.492188
vt 0.054688 0.398438
vt 0.953125 0.398438
vt 0.054688 0.492188
vt 0.953125 0.398438
vt 0.953125 0.492188
vt 0.03125 0.914063
vt 0.5625 0.914063
vt 0.5625 0.980469
vt 0.03125 0.914063
vt 0.5625 0.980469
vt 0.03125 0.976563
vt 0.03125 0.914063
vt 0.03125 0.851563
vt 0.5625 0.855469
vt 0.03125 0.914063
vt 0.5625 0.855469
vt 0.5625 0.914063
vt 0.5625 0.730469
vt 0.5625 0.789063
vt 0.03125 0.789063
vt 0.5625 0.730469
vt 0.03125 0.789063
vt 0.035156 0.726563
vt 0.5625 0.914063
vt 0.5625 0.855469
vt 0.628906 0.855469
vt 0.5625 0.914063
vt 0.628906 0.855469
vt 0.628906 0.914063
vt 0.03125 0.789063
vt 0.5625 0.789063
vt 0.5625 0.855469
vt 0.03125 0.789063
vt 0.5625 0.855469
vt 0.03125 0.851563
vt 0.03125 0.914063
vt 0.5625 0.914063
vt 0.5625 0.980469
vt 0.03125 0.914063
vt 0.5625 0.980469
vt 0.03125 0.976563
vt 0.03125 0.914063
vt 0.03125 0.851563
vt 0.5625 0.855469
vt 0.03125 0.914063
vt 0.5625 0.855469
vt 0.5625 0.914063
vt 0.5625 0.730469
vt 0.5625 0.789063
vt 0.03125 0.789063
vt 0.5625 0.730469
vt 0.03125 0.789063
vt 0.035156 0.726563
vt 0.5625 0.914063
vt 0.5625 0.855469
vt 0.628906 0.855469
vt 0.5625 0.914063
vt 0.628906 0.855469
vt 0.628906 0.914063
vt 0.03125 0.789063
vt 0.5625 0.789063
vt 0.5625 0.855469
vt 0.03125 0.789063
vt 0.5625 0.855469
vt 0.03125 0.851563
vt 0.03125 0.914063
vt 0.5625 0.914063
vt 0.5625 0.980469
vt 0.03125 0.914063
vt 0.5625 0.980469
vt 0.03125 0.976563
vt 0.03125 0.914063
vt 0.03125 0.851563
vt 0.5625 0.855469
vt 0.03125 0.914063
vt 0.5625 0.855469
vt 0.5625 0.914063
vt 0.5625 0.730469
vt 0.5625 0.789063
vt 0.03125 0.789063
vt 0.5625 0.730469
vt 0.03125 0.789063
vt 0.035156 0.726563
vt 0.5625 0.914063
vt 0.5625 0.855469
vt 0.628906 0.855469
vt 0.5625 0.914063
vt 0.628906 0.855469
vt 0.628906 0.914063
vt 0.03125 0.789063
vt 0.5625 0.789063
vt 0.5625 0.855469
vt 0.03125 0.789063
vt 0.5625 0.855469
vt 0.03125 0.851563
vt 0.03125 0.914063
vt 0.5625 0.914063
vt 0.5625 0.980469
vt 0.03125 0.914063
vt 0.5625 0.980469
vt 0.03125 0.976563
vt 0.03125 0.914063
vt 0.03125 0.851563
vt 0.5625 0.855469
vt 0.03125 0.914063
vt 0.5625 0.855469
vt 0.5625 0.914063
vt 0.5625 0.730469
vt 0.5625 0.789063
vt 0.03125 0.789063
vt 0.5625 0.730469
vt 0.03125 0.789063
vt 0.035156 0.726563
vt 0.5625 0.914063
vt 0.5625 0.855469
vt 0.628906 0.855469
vt 0.5625 0.914063
vt 0.628906 0.855469
vt 0.628906 0.914063
vt 0.03125 0.789063
vt 0.5625 0.789063
vt 0.5625 0.855469
vt 0.03125 0.789063
vt 0.5625 0.855469
vt 0.03125 0.851563
vt 0.03125 0.914063
vt 0.5625 0.914063
vt 0.5625 0.980469
vt 0.03125 0.914063
vt 0.5625 0.980469
vt 0.03125 0.976563
vt 0.03125 0.914063
vt 0.03125 0.851563
vt 0.5625 0.855469
vt 0.03125 0.914063
vt 0.5625 0.855469
vt 0.5625 0.914063
vt 0.5625 0.730469
vt 0.5625 0.789063
vt 0.03125 0.789063
vt 0.5625 0.730469
vt 0.03125 0.789063
vt 0.035156 0.726563
vt 0.5625 0.914063
vt 0.5625 0.855469
vt 0.628906 0.855469
vt 0.5625 0.914063
vt 0.628906 0.855469
vt 0.628906 0.914063
vt 0.03125 0.789063
vt 0.5625 0.789063
vt 0.5625 0.855469
vt 0.03125 0.789063
vt 0.5625 0.855469
vt 0.03125 0.851563
vt 0.03125 0.914063
vt 0.5625 0.914063
vt 0.5625 0.980469
vt 0.03125 0.914063
vt 0.5625 0.980469
vt 0.03125 0.976563
vt 0.03125 0.914063
vt 0.03125 0.851563
vt 0.5625 0.855469
vt 0.03125 0.914063
vt 0.5625 0.855469
vt 0.5625 0.914063
vt 0.5625 0.730469
vt 0.5625 0.789063
vt 0.03125 0.789063
vt 0.5625 0.730469
vt 0.03125 0.789063
vt 0.035156 0.726563
vt 0.5625 0.914063
vt 0.5625 0.855469
vt 0.628906 0.855469
vt 0.5625 0.914063
vt 0.628906 0.855469
vt 0.628906 0.914063
vt 0.03125 0.789063
vt 0.5625 0.789063
vt 0.5625 0.855469
vt 0.03125 0.789063
vt 0.5625 0.855469
vt 0.03125 0.851563
vt 0.03125 0.914063
vt 0.5625 0.914063
vt 0.5625 0.980469
vt 0.03125 0.914063
vt 0.5625 0.980469
vt 0.03125 0.976563
vt 0.03125 0.914063
vt 0.03125 0.851563
vt 0.5625 0.855469
vt 0.03125 0.914063
vt 0.5625 0.855469
vt 0.5625 0.914063
vt 0.5625 0.730469
vt 0.5625 0.789063
vt 0.03125 0.789063
vt 0.5625 0.730469
vt 0.03125 0.789063
vt 0.035156 0.726563
vt 0.5625 0.914063
vt 0.5625 0.855469
vt 0.628906 0.855469
vt 0.5625 0.914063
vt 0.628906 0.855469
vt 0.628906 0.914063
vt 0.03125 0.789063
vt 0.5625 0.789063
vt 0.5625 0.855469
vt 0.03125 0.789063
vt 0.5625 0.855469
vt 0.03125 0.851563
vt 0.953125 0.585938
vt 0.953125 0.679688
vt 0.054688 0.679688
vt 0.953125 0.585938
vt 0.054688 0.679688
vt 0.054688 0.585938
vt 1.0 0.492188
vt 0.953125 0.492188
vt 0.953125 0.398438
vt 1.0 0.492188
vt 0.953125 0.398438
vt 1.0 0.398438
vt 0.054688 0.585938
vt 0.054688 0.492188
vt 0.953125 0.492188
vt 0.054688 0.585938
vt 0.953125 0.492188
vt 0.953125 0.585938
vt 0.003906 0.398438
vt 0.054688 0.398438
vt 0.054688 0.492188
vt 0.003906 0.398438
vt 0.054688 0.492188
vt 0.003906 0.492188
vt 0.953125 0.304688
vt 0.953125 0.398438
vt 0.054688 0.398438
vt 0.953125 0.304688
vt 0.054688 0.398438
vt 0.054688 0.300781
vt 0.054688 0.492188
vt 0.054688 0.398438
vt 0.953125 0.398438
vt 0.054688 0.492188
vt 0.953125 0.398438
vt 0.953125 0.492188
vt 0.0 1.0
vt 0.0 1.0
vt 0.0 1.0
vt 0.0 1.0
vt 0.0 1.0
vt 0.0 1.0
vt 0.0 1.0
vt 0.0 1.0
vt 0.0 1.0
vt 0.0 1.0
vt 0.0 1.0
vt 0.0 1.0
vt 0.0 1.0
vt 0.0 1.0
vt 0.0 1.0
vt 0.0 1.0
vt 0.0 1.0
vt 0.0 1.0
vt 0.0 1.0
vt 0.0 1.0
vt 0.0 1.0
vt 0.0 1.0
vt 0.0 1.0
vt 0.0 1.0
vt 0.0 1.0
vt 0.0 1.0
vt 0.0 1.0
vt 0.0 1.0
vt 0.0 1.0
vt 0.0 1.0
vt 0.0 1.0
vt 0.0 1.0
vt 0.0 1.0
vt 0.0 1.0
vt 0.0 1.0
vt 0.0 1.0
vt 0.0 1.0
vt 0.0 1.0
vt 0.0 1.0
vt 0.0 1.0
vt 0.0 1.0
vt 0.0 1.0

# 324 Vertex Normals
vn -1.0 -0.0 0.0
vn -1.0 -0.0 0.0
vn -1.0 -0.0 0.0
vn -1.0 -0.0 0.0
vn -1.0 -0.0 0.0
vn -1.0 -0.0 0.0
vn 0.0 -1.0 -0.0
vn 0.0 -1.0 0.0
vn 0.0 -1.0 -0.0
vn 0.0 -1.0 -0.0
vn 0.0 -1.0 -0.0
vn 0.0 -1.0 -0.0
vn 0.0 -0.0 -1.0
vn 0.0 -0.0 -1.0
vn 0.0 -0.0 -1.0
vn 0.0 -0.0 -1.0
vn 0.0 -0.0 -1.0
vn 0.0 -0.0 -1.0
vn -0.0 1.0 0.0
vn 0.0 1.0 0.0
vn -0.0 1.0 0.0
vn -0.0 1.0 0.0
vn -0.0 1.0 0.0
vn -0.0 1.0 0.0
vn 0.0 -0.0 1.0
vn 0.0 -0.0 1.0
vn 0.0 -0.0 1.0
vn 0.0 -0.0 1.0
vn 0.0 -0.0 1.0
vn 0.0 -0.0 1.0
vn 1.0 0.0 -0.0
vn 1.0 0.0 -0.0
vn 1.0 0.0 -0.0
vn 1.0 0.0 -0.0
vn 1.0 0.0 -0.0
vn 1.0 0.0 0.0
vn -1.0 -0.0 0.0
vn -1.0 -0.0 0.0
vn -1.0 -0.0 0.0
vn -1.0 -0.0 0.0
vn -1.0 -0.0 0.0
vn -1.0 -0.0 0.0
vn 0.0 -1.0 0.0
vn 0.000001 -1.0 0.0
vn 0.0 -1.0 0.0
vn 0.0 -1.0 0.0
vn 0.0 -1.0 0.0
vn -0.000001 -1.0 0.0
vn 0.0 1.0 0.0
vn -0.000001 1.0 0.0
vn 0.0 1.0 0.0
vn 0.0 1.0 0.0
vn 0.0 1.0 0.0
vn 0.000001 1.0 0.0
vn 0.0 0.0 1.0
vn 0.0 0.0 1.0
vn 0.0 0.0 1.0
vn 0.0 0.0 1.0
vn 0.0 0.0 1.0
vn 0.0 0.0 1.0
vn 1.0 0.0 -0.0
vn 1.0 0.0 -0.0
vn 1.0 0.0 -0.0
vn 1.0 0.0 -0.0
vn 1.0 0.0 -0.0
vn 1.0 0.0 -0.0
vn -1.0 -0.0 0.0
vn -1.0 -0.0 0.0
vn -1.0 -0.0 0.0
vn -1.0 -0.0 0.0
vn -1.0 -0.0 0.0
vn -1.0 -0.0 0.0
vn 0.0 -1.0 0.0
vn -0.000001 -1.0 0.0
vn 0.0 -1.0 0.0
vn 0.0 -1.0 0.0
vn 0.0 -1.0 0.0
vn 0.000001 -1.0 0.0
vn -0.0 1.0 0.0
vn 0.000001 1.0 0.0
vn -0.0 1.0 0.0
vn -0.0 1.0 0.0
vn -0.0 1.0 0.0
vn -0.000001 1.0 0.0
vn 0.0 -0.0 1.0
vn 0.0 -0.0 1.0
vn 0.0 -0.0 1.0
vn 0.0 -0.0 1.0
vn 0.0 -0.0 1.0
vn 0.0 0.0 1.0
vn 1.0 0.0 -0.0
vn 1.0 0.0 -0.0
vn 1.0 0.0 -0.0
vn 1.0 0.0 -0.0
vn 1.0 0.0 -0.0
vn 1.0 0.0 -0.0
vn -1.0 -0.0 0.0
vn -1.0 -0.0 0.0
vn -1.0 -0.0 0.0
vn -1.0 -0.0 0.0
vn -1.0 -0.0 0.0
vn -1.0 -0.0 0.0
vn 0.0 -1.0 0.0
vn -0.000001 -1.0 0.0
vn 0.0 -1.0 0.0
vn 0.0 -1.0 0.0
vn 0.0 -1.0 0.0
vn 0.000001 -1.0 0.0
vn 0.0 1.0 0.0
vn 0.000001 1.0 0.0
vn 0.0 1.0 0.0
vn 0.0 1.0 0.0
vn 0.0 1.0 0.0
vn -0.000001 1.0 0.0
vn 0.0 -0.0 1.0
vn 0.0 -0.0 1.0
vn 0.0 -0.0 1.0
vn 0.0 -0.0 1.0
vn 0.0 -0.0 1.0
vn 0.0 0.0 1.0
vn 1.0 0.0 -0.0
vn 1.0 0.0 -0.0
vn 1.0 0.0 -0.0
vn 1.0 0.0 -0.0
vn 1.0 0.0 -0.0
vn 1.0 0.0 -0.0
vn -1.0 -0.0 0.0
vn -1.0 -0.0 0.0
vn -1.0 -0.0 0.0
vn -1.0 -0.0 0.0
vn -1.0 -0.0 0.0
vn -1.0 -0.0 0.0
vn 0.0 -1.0 0.0
vn -0.0 -1.0 0.0
vn 0.0 -1.0 0.0
vn 0.0 -1.0 0.0
vn 0.0 -1.0 0.0
vn 0.0 -1.0 0.0
vn 0.0 1.0 0.0
vn -0.000001 1.0 0.0
vn 0.0 1.0 0.0
vn 0.0 1.0 0.0
vn 0.0 1.0 0.0
vn 0.000001 1.0 0.0
vn 0.0 0.0 1.0
vn 0.0 0.0 1.0
vn 0.0 0.0 1.0
vn 0.0 0.0 1.0
vn 0.0 0.0 1.0
vn 0.0 0.0 1.0
vn 1.0 0.0 -0.0
vn 1.0 0.0 -0.0
vn 1.0 0.0 -0.0
vn 1.0 0.0 -0.0
vn 1.0 0.0 -0.0
vn 1.0 0.0 -0.0
vn -1.0 -0.0 0.0
vn -1.0 -0.0 0.0
vn -1.0 -0.0 0.0
vn -1.0 -0.0 0.0
vn -1.0 -0.0 0.0
vn -1.0 -0.0 0.0
vn 0.0 -1.0 0.0
vn 0.0 -1.0 0.0
vn 0.0 -1.0 0.0
vn 0.0 -1.0 0.0
vn 0.0 -1.0 0.0
vn -0.0 -1.0 0.0
vn 0.0 1.0 0.0
vn 0.0 1.0 0.0
vn 0.0 1.0 0.0
vn 0.0 1.0 0.0
vn 0.0 1.0 0.0
vn -0.0 1.0 0.0
vn 0.0 0.0 1.0
vn 0.0 0.0 1.0
vn 0.0 0.0 1.0
vn 0.0 0.0 1.0
vn 0.0 0.0 1.0
vn 0.0 0.0 1.0
vn 1.0 0.0 -0.0
vn 1.0 0.0 -0.0
vn 1.0 0.0 -0.0
vn 1.0 0.0 -0.0
vn 1.0 0.0 -0.0
vn 1.0 0.0 -0.0
vn -1.0 -0.0 0.0
vn -1.0 -0.0 0.0
vn -1.0 -0.0 0.0
vn -1.0 -0.0 0.0
vn -1.0 -0.0 0.0
vn -1.0 -0.0 0.0
vn 0.0 -1.0 0.0
vn 0.0 -1.0 0.0
vn 0.0 -1.0 0.0
vn 0.0 -1.0 0.0
vn 0.0 -1.0 0.0
vn -0.0 -1.0 0.0
vn 0.0 1.0 0.0
vn 0.0 1.0 0.0
vn 0.0 1.0 0.0
vn 0.0 1.0 0.0
vn 0.0 1.0 0.0
vn -0.0 1.0 0.0
vn 0.0 0.0 1.0
vn 0.0 -0.0 1.0
vn 0.0 0.0 1.0
vn 0.0 0.0 1.0
vn 0.0 0.0 1.0
vn 0.0 0.0 1.0
vn 1.0 0.0 -0.0
vn 1.0 0.0 -0.0
vn 1.0 0.0 -0.0
vn 1.0 0.0 -0.0
vn 1.0 0.0 -0.0
vn 1.0 0.0 -0.0
vn -1.0 -0.0 0.0
vn -1.0 -0.0 0.0
vn -1.0 -0.0 0.0
vn -1.0 -0.0 0.0
vn -1.0 -0.0 0.0
vn -1.0 -0.0 0.0
vn 0.0 -1.0 0.0
vn 0.0 -1.0 0.0
vn 0.0 -1.0 0.0
vn 0.0 -1.0 0.0
vn 0.0 -1.0 0.0
vn -0.0 -1.0 0.0
vn 0.0 1.0 0.0
vn 0.0 1.0 0.0
vn 0.0 1.0 0.0
vn 0.0 1.0 0.0
vn 0.0 1.0 0.0
vn -0.0 1.0 0.0
vn 0.0 0.0 1.0
vn 0.0 0.0 1.0
vn 0.0 0.0 1.0
vn 0.0 0.0 1.0
vn 0.0 0.0 1.0
vn 0.0 0.0 1.0
vn 1.0 0.0 -0.0
vn 1.0 0.0 -0.0
vn 1.0 0.0 -0.0
vn 1.0 0.0 -0.0
vn 1.0 0.0 -0.0
vn 1.0 0.0 -0.0
vn -1.0 -0.0 0.0
vn -1.0 -0.0 0.0
vn -1.0 -0.0 0.0
vn -1.0 -0.0 0.0
vn -1.0 -0.0 0.0
vn -1.0 -0.0 0.0
vn 0.0 -1.0 -0.0
vn 0.0 -1.0 -0.0
vn 0.0 -1.0 -0.0
vn 0.0 -1.0 -0.0
vn 0.0 -1.0 -0.0
vn 0.0 -1.0 -0.0
vn 0.0 -0.0 -1.0
vn 0.0 -0.0 -1.0
vn 0.0 -0.0 -1.0
vn 0.0 -0.0 -1.0
vn 0.0 -0.0 -1.0
vn 0.0 0.0 -1.0
vn 0.0 1.0 0.0
vn 0.0 1.0 0.0
vn 0.0 1.0 0.0
vn 0.0 1.0 0.0
vn 0.0 1.0 0.0
vn -0.0 1.0 0.0
vn 0.0 0.0 1.0
vn 0.0 -0.0 1.0
vn 0.0 0.0 1.0
vn 0.0 0.0 1.0
vn 0.0 0.0 1.0
vn 0.0 0.0 1.0
vn 1.0 0.0 -0.0
vn 1.0 0.0 -0.0
vn 1.0 0.0 -0.0
vn 1.0 0.0 -0.0
vn 1.0 0.0 -0.0
vn 1.0 0.0 -0.0
vn 0.0 -0.0 -1.0
vn 0.0 0.0 -1.0
vn 0.0 -0.0 -1.0
vn 0.0 -0.0 -1.0
vn 0.0 -0.0 -1.0
vn 0.0 -0.0 -1.0
vn 0.0 0.0 -1.0
vn 0.0 0.0 -1.0
vn 0.0 0.0 -1.0
vn 0.0 0.0 -1.0
vn 0.0 0.0 -1.0
vn 0.0 0.0 -1.0
vn 0.0 -0.0 -1.0
vn 0.0 -0.0 -1.0
vn 0.0 -0.0 -1.0
vn 0.0 -0.0 -1.0
vn 0.0 -0.0 -1.0
vn 0.0 0.0 -1.0
vn 0.0 -0.0 -1.0
vn 0.0 -0.0 -1.0
vn 0.0 -0.0 -1.0
vn 0.0 -0.0 -1.0
vn 0.0 -0.0 -1.0
vn 0.0 -0.0 -1.0
vn 0.0 -0.0 -1.0
vn 0.0 0.0 -1.0
vn 0.0 -0.0 -1.0
vn 0.0 -0.0 -1.0
vn 0.0 -0.0 -1.0
vn 0.0 -0.0 -1.0
vn 0.0 0.0 -1.0
vn 0.0 0.0 -1.0
vn 0.0 0.0 -1.0
vn 0.0 0.0 -1.0
vn 0.0 0.0 -1.0
vn 0.0 0.0 -1.0
vn 0.0 0.0 -1.0
vn 0.0 -0.0 -1.0
vn 0.0 0.0 -1.0
vn 0.0 0.0 -1.0
vn 0.0 0.0 -1.0
vn 0.0 0.0 -1.0

# Group, 108 grouped triangles

usemtl skin
o Group
g Group

f 1/1/1 2/2/2 3/3/3
f 1/4/4 3/5/5 4/6/6
f 1/7/7 5/8/8 6/9/9
f 1/10/10 6/11/11 2/12/12
f 4/13/13 7/14/14 5/15/15
f 4/16/16 5/17/17 1/18/18
f 3/19/19 8/20/20 7/21/21
f 3/22/22 7/23/23 4/24/24
f 2/25/25 6/26/26 8/27/27
f 2/28/28 8/29/29 3/30/30
f 7/31/31 8/32/32 6/33/33
f 7/34/34 6/35/35 5/36/36
f 9/37/37 10/38/38 11/39/39
f 9/40/40 11/41/41 12/42/42
f 9/43/43 13/44/44 14/45/45
f 9/46/46 14/47/47 10/48/48
f 11/49/49 15/50/50 16/51/51
f 11/52/52 16/53/53 12/54/54
f 10/55/55 14/56/56 15/57/57
f 10/58/58 15/59/59 11/60/60
f 16/61/61 15/62/62 14/63/63
f 16/64/64 14/65/65 13/66/66
f 17/67/67 18/68/68 19/69/69
f 17/70/70 19/71/71 20/72/72
f 17/73/73 21/74/74 22/75/75
f 17/76/76 22/77/77 18/78/78
f 19/79/79 23/80/80 24/81/81
f 19/82/82 24/83/83 20/84/84
f 18/85/85 22/86/86 23/87/87
f 18/88/88 23/89/89 19/90/90
f 24/91/91 23/92/92 22/93/93
f 24/94/94 22/95/95 21/96/96
f 25/97/97 26/98/98 27/99/99
f 25/100/100 27/101/101 28/102/102
f 25/103/103 29/104/104 30/105/105
f 25/106/106 30/107/107 26/108/108
f 27/109/109 31/110/110 32/111/111
f 27/112/112 32/113/113 28/114/114
f 26/115/115 30/116/116 31/117/117
f 26/118/118 31/119/119 27/120/120
f 32/121/121 31/122/122 30/123/123
f 32/124/124 30/125/125 29/126/126
f 33/127/127 34/128/128 35/129/129
f 33/130/130 35/131/131 36/132/132
f 33/133/133 37/134/134 38/135/135
f 33/136/136 38/137/137 34/138/138
f 35/139/139 39/140/140 40/141/141
f 35/142/142 40/143/143 36/144/144
f 34/145/145 38/146/146 39/147/147
f 34/148/148 39/149/149 35/150/150
f 40/151/151 39/152/152 38/153/153
f 40/154/154 38/155/155 37/156/156
f 41/157/157 42/158/158 43/159/159
f 41/160/160 43/161/161 44/162/162
f 41/163/163 45/164/164 46/165/165
f 41/166/166 46/167/167 42/168/168
f 43/169/169 47/170/170 48/171/171
f 43/172/172 48/173/173 44/174/174
f 42/175/175 46/176/176 47/177/177
f 42/178/178 47/179/179 43/180/180
f 48/181/181 47/182/182 46/183/183
f 48/184/184 46/185/185 45/186/186
f 49/187/187 50/188/188 51/189/189
f 49/190/190 51/191/191 52/192/192
f 49/193/193 53/194/194 54/195/195
f 49/196/196 54/197/197 50/198/198
f 51/199/199 55/200/200 56/201/201
f 51/202/202 56/203/203 52/204/204
f 50/205/205 54/206/206 55/207/207
f 50/208/208 55/209/209 51/210/210
f 56/211/211 55/212/212 54/213/213
f 56/214/214 54/215/215 53/216/216
f 57/217/217 58/218/218 59/219/219
f 57/220/220 59/221/221 60/222/222
f 57/223/223 61/224/224 62/225/225
f 57/226/226 62/227/227 58/228/228
f 59/229/229 63/230/230 64/231/231
f 59/232/232 64/233/233 60/234/234
f 58/235/235 62/236/236 63/237/237
f 58/238/238 63/239/239 59/240/240
f 64/241/241 63/242/242 62/243/243
f 64/244/244 62/245/245 61/246/246
f 65/247/247 66/248/248 67/249/249
f 65/250/250 67/251/251 68/252/252
f 65/253/253 69/254/254 70/255/255
f 65/256/256 70/257/257 66/258/258
f 68/259/259 71/260/260 69/261/261
f 68/262/262 69/263/263 65/264/264
f 67/265/265 72/266/266 71/267/267
f 67/268/268 71/269/269 68/270/270
f 66/271/271 70/272/272 72/273/273
f 66/274/274 72/275/275 67/276/276
f 71/277/277 72/278/278 70/279/279
f 71/280/280 70/281/281 69/282/282
f 12/283/283 16/284/284 13/285/285
f 12/286/286 13/287/287 9/288/288
f 20/289/289 24/290/290 21/291/291
f 20/292/292 21/293/293 17/294/294
f 28/295/295 32/296/296 29/297/297
f 28/298/298 29/299/299 25/300/300
f 36/301/301 40/302/302 37/303/303
f 36/304/304 37/305/305 33/306/306
f 44/307/307 48/308/308 45/309/309
f 44/310/310 45/311/311 41/312/312
f 52/313/313 56/314/314 53/315/315
f 52/316/316 53/317/317 49/318/318
f 60/319/319 64/320/320 61/321/321
f 60/322/322 61/323/323 57/324/324
